<svg width="16" height="14" viewBox="0 0 16 14" fill="none" xmlns="http://www.w3.org/2000/svg">
<path d="M1.61627 8.93062C2.6093 10.2413 3.89894 11.295 5.24017 12.246C5.24017 12.246 6.83933 13.3511 7.57443 13.8651C7.84526 14.045 8.19333 14.045 8.45126 13.8651C9.18636 13.3511 10.7726 12.246 10.7726 12.246C12.1139 11.2951 13.3777 10.2543 14.3836 8.93062C15.2349 7.79984 15.8667 6.46346 15.9828 5.04998C16.1891 2.48001 14.5255 0.0128498 11.7657 0.0128498C10.1536 0.0128498 8.73498 0.886637 8.01278 2.18447C7.26479 0.873787 5.85908 0 4.24702 0C1.50007 0 -0.189361 2.46716 0.016982 5.03713C0.133179 6.45061 0.752209 7.79984 1.61627 8.93062Z" fill="#07319D"/>
</svg>
