<svg width="111" height="97" viewBox="0 0 111 97" fill="none" xmlns="http://www.w3.org/2000/svg">
<path d="M11.7785 61.5719C18.6055 70.5594 27.4719 77.7847 36.6928 84.3059C36.6928 84.3059 47.6871 91.8836 52.7408 95.4081C54.6028 96.6417 56.9958 96.6417 58.7691 95.4081C63.8229 91.8836 74.7284 84.3059 74.7284 84.3059C83.9494 77.7855 92.6384 70.6484 99.5541 61.5719C105.407 53.8179 109.75 44.6542 110.548 34.9617C111.967 17.3391 100.529 0.421441 81.5555 0.421441C70.4726 0.421441 60.7196 6.41313 55.7545 15.3125C50.612 6.32501 40.9478 0.333328 29.8649 0.333328C10.9796 0.333328 -0.635233 17.251 0.783377 34.8736C1.58223 44.5661 5.83806 53.8179 11.7785 61.5719Z" fill="white" fill-opacity="0.8"/>
</svg>
