<svg width="16" height="14" viewBox="0 0 16 14" fill="none" xmlns="http://www.w3.org/2000/svg">
<path d="M15.1415 2.88379C14.8962 2.18378 14.4653 1.55231 13.8954 1.05763C13.3249 0.562503 12.6388 0.224938 11.9112 0.0814675C11.6371 0.027407 11.3552 0 11.0735 0C10.2514 0 9.45186 0.232457 8.76135 0.672256C8.34567 0.937018 7.98051 1.26909 7.67971 1.65307C7.37899 1.26983 7.01408 0.938383 6.59883 0.67414C5.90865 0.234984 5.10968 0.00285685 4.28824 0.00285685C4.28819 0.00285685 4.28825 0.00285685 4.28822 0.00285685C3.60377 0.00285685 2.91683 0.171914 2.30183 0.491709C1.6873 0.811269 1.15432 1.27621 0.760581 1.83628C0.357137 2.41012 0.111386 3.05268 0.0301382 3.74609C-0.0410005 4.35336 0.0139389 5.00526 0.193465 5.68367C0.549096 7.02757 1.33625 8.25338 1.93398 9.04506C3.23361 10.7664 5.02056 12.3288 7.39696 13.8217L7.68084 14L7.96473 13.8217C10.8878 11.9854 12.9281 10.0467 14.202 7.89475C14.9347 6.65714 15.3164 5.55458 15.369 4.52408C15.3983 3.94978 15.3217 3.3979 15.1415 2.88379ZM7.68087 12.7373C5.55781 11.3701 3.95444 9.9497 2.78583 8.40188C2.24575 7.68655 1.53662 6.58694 1.22534 5.41062C1.08022 4.86221 1.03478 4.34399 1.09028 3.8703C1.15065 3.35506 1.33349 2.87728 1.63376 2.45019C1.92955 2.02947 2.33086 1.67971 2.79426 1.43874C3.25784 1.19768 3.77444 1.07027 4.28824 1.07027C4.90634 1.07027 5.50717 1.24471 6.02577 1.57471C6.53127 1.89637 6.93767 2.35013 7.20097 2.88692L7.68065 3.86472L8.15949 2.88651C8.42255 2.34907 8.82893 1.89472 9.33475 1.57259C9.85364 1.24211 10.4549 1.06743 11.0735 1.06743C11.2861 1.06743 11.4984 1.08805 11.7047 1.12873C12.25 1.23625 12.7656 1.49042 13.1957 1.86375C13.6257 2.23694 13.9502 2.71175 14.1342 3.23687C14.2684 3.61964 14.3252 4.03445 14.303 4.46974C14.2595 5.32333 13.926 6.26579 13.2836 7.35098C12.1391 9.28414 10.3044 11.0484 7.68087 12.7373Z" fill="#07319D"/>
</svg>
