<svg width="200" height="48" fill="none" xmlns="http://www.w3.org/2000/svg"><path d="M11.472 3.408C9.328 4.272 7.664 5.6 6.48 7.392c-1.152 1.76-1.728 3.92-1.728 6.48 0 1.184.112 2.016.336 2.496.224.448.336.704.336.768-1.728 0-3.024-.352-3.888-1.056-.832-.736-1.248-1.936-1.248-3.6 0-2.048.832-4.032 2.496-5.952 1.696-1.952 3.856-3.52 6.48-4.704C11.888.608 14.512 0 17.136 0c.448 0 1.088.032 1.92.096L11.424 36H4.512l6.96-32.592zm23.856 32.88c-1.952 0-3.392-.512-4.32-1.536-.896-1.056-1.344-2.352-1.344-3.888 0-.672.08-1.424.24-2.256.16-.864.32-1.696.48-2.496.192-.8.32-1.312.384-1.536.256-1.12.496-2.224.72-3.312.224-1.088.336-1.968.336-2.64 0-1.632-.576-2.448-1.728-2.448-.832 0-1.568.416-2.208 1.248-.64.8-1.152 1.856-1.536 3.168L23.088 36h-6.912l5.088-24h6.912l-.528 2.496c1.6-1.792 3.472-2.688 5.616-2.688 1.632 0 2.928.448 3.888 1.344.96.896 1.44 2.256 1.44 4.08 0 .928-.112 1.968-.336 3.12a83.525 83.525 0 01-.96 4.128 129.32 129.32 0 00-.72 2.928c-.192.928-.288 1.664-.288 2.208 0 .64.144 1.136.432 1.488.288.352.784.528 1.488.528.96 0 1.728-.336 2.304-1.008.576-.704 1.152-1.776 1.728-3.216h2.016c-1.184 3.52-2.56 5.888-4.128 7.104-1.536 1.184-3.136 1.776-4.8 1.776zm12.378 0c-1.536 0-2.832-.288-3.888-.864-1.056-.608-1.84-1.376-2.352-2.304-.512-.96-.768-1.952-.768-2.976 0-1.056.256-1.968.768-2.736.48-.8 1.072-1.376 1.776-1.728a62.34 62.34 0 003.264-6.768 99.746 99.746 0 002.64-7.44l7.104-.96c.16 4.096.432 8.528.816 13.296.16 1.92.24 3.312.24 4.176 0 .736-.064 1.344-.192 1.824 1.504-.864 2.656-1.664 3.456-2.4h2.016c-2.048 2.368-4.496 4.368-7.344 6-.928.992-2.08 1.728-3.456 2.208a12.826 12.826 0 01-4.08.672zm-1.536-3.792c1.184 0 2.176-.352 2.976-1.056.8-.704 1.2-1.84 1.2-3.408 0-.96-.096-2.304-.288-4.032-.32-3.648-.528-6.096-.624-7.344-.768 2.528-2.064 5.552-3.888 9.072.736.384 1.104.944 1.104 1.68 0 .608-.208 1.152-.624 1.632-.384.48-.88.72-1.488.72-.672 0-1.104-.208-1.296-.624 0 1.152.224 2 .672 2.544.48.544 1.232.816 2.256.816zm19.144 3.792c-1.535 0-2.783-.48-3.743-1.44-.928-.96-1.392-2.4-1.392-4.32 0-.8.127-1.84.383-3.12l2.88-13.488h-1.584l.385-1.92h1.584l1.44-6.624 7.104-.96L70.739 12h2.88l-.385 1.92h-2.88l-3.072 14.4a5.94 5.94 0 00-.191 1.536c0 .64.144 1.104.431 1.392.32.256.832.384 1.536.384.928 0 1.792-.384 2.592-1.152.8-.8 1.376-1.824 1.728-3.072h2.016c-1.184 3.456-2.704 5.808-4.56 7.056-1.856 1.216-3.696 1.824-5.52 1.824zm13.805 0c-1.824 0-3.344-.624-4.56-1.872-1.216-1.248-1.824-3.2-1.824-5.856 0-2.368.464-4.848 1.392-7.44.96-2.624 2.368-4.832 4.224-6.624 1.888-1.824 4.128-2.736 6.72-2.736 1.312 0 2.288.224 2.928.672.64.448.96 1.04.96 1.776v.336L89.487 12H96.4l-3.456 16.32a5.94 5.94 0 00-.192 1.536c0 1.376.656 2.064 1.968 2.064.896 0 1.664-.416 2.304-1.248.672-.832 1.2-1.92 1.584-3.264h2.016c-1.184 3.456-2.656 5.808-4.416 7.056-1.728 1.216-3.472 1.824-5.232 1.824-1.344 0-2.432-.368-3.264-1.104-.8-.768-1.28-1.872-1.44-3.312-.928 1.312-1.968 2.384-3.12 3.216-1.12.8-2.464 1.2-4.032 1.2zm3.12-4.656c.8 0 1.584-.368 2.352-1.104.8-.768 1.344-1.808 1.632-3.12l2.304-10.848c0-.416-.16-.816-.48-1.2-.32-.416-.816-.624-1.488-.624-1.28 0-2.432.752-3.456 2.256-1.024 1.472-1.824 3.264-2.4 5.376-.576 2.08-.864 3.92-.864 5.52 0 1.6.224 2.624.672 3.072.48.448 1.056.672 1.728.672zM107.121 48c-1.536 0-2.816-.4-3.84-1.2-1.024-.8-1.536-1.952-1.536-3.456 0-1.824.736-3.296 2.208-4.416 1.472-1.088 3.344-2 5.616-2.736l.576-2.544c-1.632 1.76-3.552 2.64-5.76 2.64-1.824 0-3.344-.624-4.56-1.872-1.216-1.248-1.824-3.2-1.824-5.856 0-2.368.464-4.848 1.392-7.44.96-2.624 2.368-4.832 4.224-6.624 1.888-1.824 4.128-2.736 6.72-2.736 1.312 0 2.288.224 2.928.672.64.448.96 1.04.96 1.776v.288l.528-2.496h6.912l-4.752 22.272c1.536-.512 2.768-1.28 3.696-2.304.928-1.024 1.712-2.544 2.352-4.56h2.016c-.864 2.848-2.032 4.944-3.504 6.288-1.472 1.312-3.136 2.208-4.992 2.688l-.72 3.456c-.64 3.104-1.744 5.232-3.312 6.384-1.568 1.184-3.344 1.776-5.328 1.776zm.384-16.368c.736 0 1.488-.336 2.256-1.008.768-.672 1.296-1.584 1.584-2.736l2.448-11.376c0-.384-.16-.768-.48-1.152-.32-.416-.816-.624-1.488-.624-1.28 0-2.432.752-3.456 2.256-1.024 1.472-1.824 3.264-2.4 5.376-.576 2.08-.864 3.92-.864 5.52 0 1.6.224 2.624.672 3.072.48.448 1.056.672 1.728.672zm-1.488 12.624c.544 0 1.072-.368 1.584-1.104.512-.736.912-1.792 1.2-3.168l.288-1.392c-3.136 1.152-4.704 2.512-4.704 4.08 0 .416.144.784.432 1.104.288.32.688.48 1.2.48zM126.217 12h6.912l-.624 2.976c1.088-.96 2.064-1.696 2.928-2.208a5.71 5.71 0 012.88-.768c1.024 0 1.824.352 2.4 1.056.608.704.912 1.552.912 2.544 0 .928-.304 1.744-.912 2.448-.608.704-1.456 1.056-2.544 1.056-.704 0-1.184-.16-1.44-.48-.224-.352-.4-.848-.528-1.488-.096-.416-.192-.72-.288-.912-.096-.192-.272-.288-.528-.288-.672 0-1.248.144-1.728.432-.448.256-1.04.72-1.776 1.392L128.041 36h-6.912l5.088-24zm20.543 24.288c-1.824 0-3.344-.624-4.56-1.872-1.216-1.248-1.824-3.2-1.824-5.856 0-2.368.464-4.848 1.392-7.44.96-2.624 2.368-4.832 4.224-6.624 1.888-1.824 4.128-2.736 6.72-2.736 1.312 0 2.288.224 2.928.672.64.448.96 1.04.96 1.776v.336l.528-2.544h6.912l-3.456 16.32a5.94 5.94 0 00-.192 1.536c0 1.376.656 2.064 1.968 2.064.896 0 1.664-.416 2.304-1.248.672-.832 1.2-1.92 1.584-3.264h2.016c-1.184 3.456-2.656 5.808-4.416 7.056-1.728 1.216-3.472 1.824-5.232 1.824-1.344 0-2.432-.368-3.264-1.104-.8-.768-1.28-1.872-1.44-3.312-.928 1.312-1.968 2.384-3.12 3.216-1.12.8-2.464 1.2-4.032 1.2zm3.12-4.656c.8 0 1.584-.368 2.352-1.104.8-.768 1.344-1.808 1.632-3.12l2.304-10.848c0-.416-.16-.816-.48-1.2-.32-.416-.816-.624-1.488-.624-1.28 0-2.432.752-3.456 2.256-1.024 1.472-1.824 3.264-2.4 5.376-.576 2.08-.864 3.92-.864 5.52 0 1.6.224 2.624.672 3.072.48.448 1.056.672 1.728.672zm44.754 4.656c-1.696 0-2.928-.512-3.696-1.536-.768-1.024-1.152-2.32-1.152-3.888 0-.672.08-1.424.24-2.256.16-.864.32-1.696.48-2.496.192-.8.32-1.312.384-1.536.256-1.12.496-2.224.72-3.312.224-1.088.336-1.968.336-2.64 0-1.632-.576-2.448-1.728-2.448-.832 0-1.568.416-2.208 1.248-.64.8-1.152 1.856-1.536 3.168L183.21 36h-6.912l3.504-16.56a4.93 4.93 0 00.144-1.2c0-1.408-.48-2.112-1.44-2.112-.896 0-1.68.416-2.352 1.248-.64.8-1.152 1.872-1.536 3.216L171.354 36h-6.912l5.088-24h6.912l-.528 2.496c1.632-1.824 3.584-2.736 5.856-2.736 2.816 0 4.464 1.376 4.944 4.128 1.76-2.72 3.984-4.08 6.672-4.08 1.632 0 2.928.448 3.888 1.344.96.896 1.44 2.256 1.44 4.08 0 .928-.112 1.968-.336 3.12a83.525 83.525 0 01-.96 4.128 129.32 129.32 0 00-.72 2.928c-.192.928-.288 1.664-.288 2.208 0 .64.144 1.136.432 1.488.288.352.784.528 1.488.528.768 0 1.296-.096 1.584-.288-.192 1.632-.784 2.864-1.776 3.696-.96.832-2.128 1.248-3.504 1.248z" fill="#000"/></svg>